<svg xmlns="http://www.w3.org/2000/svg" width="202" height="40" viewBox="0 0 202 40">
  <metadata><?xpacket begin="﻿" id="W5M0MpCehiHzreSzNTczkc9d"?>
<x:xmpmeta xmlns:x="adobe:ns:meta/" x:xmptk="Adobe XMP Core 5.6-c138 79.159824, 2016/09/14-01:09:01        ">
   <rdf:RDF xmlns:rdf="http://www.w3.org/1999/02/22-rdf-syntax-ns#">
      <rdf:Description rdf:about=""/>
   </rdf:RDF>
</x:xmpmeta>
                                                                                                    
                                                                                                    
                                                                                                    
                                                                                                    
                                                                                                    
                                                                                                    
                                                                                                    
                                                                                                    
                                                                                                    
                                                                                                    
                                                                                                    
                                                                                                    
                                                                                                    
                                                                                                    
                                                                                                    
                                                                                                    
                                                                                                    
                                                                                                    
                                                                                                    
                                                                                                    
                           
<?xpacket end="w"?></metadata>
<defs>
    <style>
      .cls-1 {
        fill: #f98f27;
      }

      .cls-1, .cls-2 {
        fill-rule: evenodd;
      }

      .cls-2 {
        fill: #fff;
      }
    </style>
  </defs>
  <path class="cls-1" d="M0,0H37.967V34.292c0,1.68-1.683,3.055-3.739,3.055H23.253c-2.348,0-4.27.733-4.27,2.652,0-1.919-1.922-2.652-4.27-2.652H3.739C1.683,37.347,0,35.972,0,34.292V0ZM21.654,21.515H17.09a0.209,0.209,0,0,1-.237-0.235v-1a0.209,0.209,0,0,1,.237-0.235h1.324V10.294H18.394l-3.755,9.243a0.937,0.937,0,0,1-1.739,0L9.146,10.294H9.107v9.752H10.43a0.219,0.219,0,0,1,.257.235v1a0.218,0.218,0,0,1-.257.235H5.886a0.218,0.218,0,0,1-.257-0.235v-1a0.218,0.218,0,0,1,.257-0.235h1.5V8.923h-1.5a0.218,0.218,0,0,1-.257-0.235v-1a0.218,0.218,0,0,1,.257-0.235H8.929a0.931,0.931,0,0,1,.929.666L12.8,15.17l0.929,2.467H13.81q0.554-1.527.909-2.429l2.963-7.087a0.944,0.944,0,0,1,.948-0.666h3.024a0.209,0.209,0,0,1,.237.235v1a0.209,0.209,0,0,1-.237.235H20.133V20.046h1.522a0.209,0.209,0,0,1,.237.235v1a0.208,0.208,0,0,1-.237.235m0.913,9.346H21.46a0.218,0.218,0,0,1-.257-0.235V26.044a0.226,0.226,0,0,1,.257-0.255h1.245a0.218,0.218,0,0,1,.237.255v0.41a1.883,1.883,0,0,0,.455.989,6.069,6.069,0,0,0,.908,1.008,3.975,3.975,0,0,0,1.216.676,4.7,4.7,0,0,0,1.649.283,3.977,3.977,0,0,0,2.381-.626,2.037,2.037,0,0,0,.859-1.743,1.472,1.472,0,0,0-.484-1.106,3.484,3.484,0,0,0-1.255-.734q-0.771-.274-1.71-0.51t-1.876-.538a9.971,9.971,0,0,1-1.71-.725,3.427,3.427,0,0,1-1.255-1.175,3.212,3.212,0,0,1-.484-1.772,3.432,3.432,0,0,1,1.255-2.721,4.991,4.991,0,0,1,3.369-1.078,4.726,4.726,0,0,1,3.912,1.547l-0.039-1.214a0.217,0.217,0,0,1,.257-0.234H31.5a0.208,0.208,0,0,1,.237.234v4.269a0.209,0.209,0,0,1-.237.235H30.253a0.208,0.208,0,0,1-.236-0.235V20.736a2.281,2.281,0,0,0-.909-1.626,3.856,3.856,0,0,0-2.668-.821,3.359,3.359,0,0,0-2.1.616,1.908,1.908,0,0,0-.8,1.576,1.591,1.591,0,0,0,.494,1.174,3.557,3.557,0,0,0,1.284.785,18.162,18.162,0,0,0,1.738.538q0.949,0.244,1.9.538a10.356,10.356,0,0,1,1.739.7,3.5,3.5,0,0,1,1.284,1.126,2.907,2.907,0,0,1,.494,1.694,3.645,3.645,0,0,1-1.246,2.84A5.408,5.408,0,0,1,27.507,31a5.672,5.672,0,0,1-3-.725,5.151,5.151,0,0,1-1.719-1.566L22.8,30.625a0.208,0.208,0,0,1-.237.235"/>
  <path id="MasterStudy" class="cls-2" d="M56.84,24.681v-7.83l3.454,5.324h0.078l3.474-5.363v7.869h3.745v-13.7H63.613l-3.241,5.3-3.241-5.3H53.153v13.7H56.84Zm16.059,0,0.97-2.447h5.239l0.99,2.447h4.036l-5.783-13.8H74.724l-5.783,13.8H72.9Zm3.609-9.3,1.514,3.9H74.976Zm18.039,8.339a3.957,3.957,0,0,0,1.494-3.269,3.284,3.284,0,0,0-1.252-2.789,9.979,9.979,0,0,0-3.813-1.517,7.671,7.671,0,0,1-1.873-.587,0.831,0.831,0,0,1-.475-0.744,0.787,0.787,0,0,1,.349-0.665,1.7,1.7,0,0,1,1.009-.255,6.54,6.54,0,0,1,3.8,1.351l1.882-2.682a8.6,8.6,0,0,0-5.589-1.82,5.688,5.688,0,0,0-3.833,1.223,3.972,3.972,0,0,0-1.426,3.161A3.971,3.971,0,0,0,85.2,16.91a3.007,3.007,0,0,0,1.135,1.223A7.906,7.906,0,0,0,87.9,18.9a20.488,20.488,0,0,0,2.047.577,7.052,7.052,0,0,1,1.824.6,0.828,0.828,0,0,1,.466.714q0,0.979-1.553.979a6.877,6.877,0,0,1-4.405-1.644l-2.1,2.525a9.155,9.155,0,0,0,6.365,2.271A6.22,6.22,0,0,0,94.549,23.722Zm9.561,0.959V14.306h4.075V10.979H96.27v3.328h4.075V24.681h3.765Zm16.6,0v-3.23h-7.3V19.278h6.52V16.283h-6.52V14.209h7.2v-3.23H109.682v13.7h11.023Zm5.4,0v-4.15h1.649l2.736,4.15h4.347L131.6,19.9a4.244,4.244,0,0,0,2.794-4.208,4.414,4.414,0,0,0-1.2-3.249,5.986,5.986,0,0,0-4.425-1.468h-6.423v13.7H126.1Zm0-10.414h2.464a2.417,2.417,0,0,1,1.5.411,1.437,1.437,0,0,1,.534,1.214,1.5,1.5,0,0,1-.534,1.223,2.268,2.268,0,0,1-1.484.44H126.1V14.267Zm20.979,9.543a3.457,3.457,0,0,0,1.3-2.809,3.12,3.12,0,0,0-1.058-2.5,7.765,7.765,0,0,0-3.366-1.419,8.017,8.017,0,0,1-2.921-1.057,1.913,1.913,0,0,1-.767-1.605,1.983,1.983,0,0,1,.8-1.615,3.257,3.257,0,0,1,2.1-.636,6.04,6.04,0,0,1,3.92,1.488l0.892-1.194a7.363,7.363,0,0,0-4.773-1.683A4.815,4.815,0,0,0,140,11.84a3.348,3.348,0,0,0-1.262,2.682,3.168,3.168,0,0,0,1.068,2.564,8.217,8.217,0,0,0,3.493,1.429,7.177,7.177,0,0,1,2.794,1.018,1.92,1.92,0,0,1,.738,1.585A2.077,2.077,0,0,1,146,22.831a3.446,3.446,0,0,1-2.193.656,6.226,6.226,0,0,1-2.474-.47,7.818,7.818,0,0,1-2.183-1.468l-0.951,1.135a8.041,8.041,0,0,0,5.55,2.192A5.091,5.091,0,0,0,147.082,23.81Zm8.959,0.871V12.408H160.6V10.979H149.929v1.429h4.56V24.681h1.552Zm16.237-1.351a6.172,6.172,0,0,0,1.533-4.5V10.979h-1.533v7.967a4.738,4.738,0,0,1-1.087,3.367,4.488,4.488,0,0,1-6.064-.049,4.894,4.894,0,0,1-1.1-3.416V10.979H162.5v7.967a6,6,0,0,0,1.533,4.395A6.228,6.228,0,0,0,172.278,23.33Zm9.492,1.351a7.167,7.167,0,0,0,5.191-1.957,6.523,6.523,0,0,0,2.027-4.894,6.526,6.526,0,0,0-2.018-4.9,7.177,7.177,0,0,0-5.2-1.948h-4.716v13.7h4.716Zm-3.183-12.273h3.183a5.524,5.524,0,0,1,4.075,1.546A5.247,5.247,0,0,1,187.4,17.83a5.253,5.253,0,0,1-1.543,3.886,5.532,5.532,0,0,1-4.084,1.537h-3.183V12.408Zm17.769,12.273V19.239L202,10.979h-1.786L195.6,17.83l-4.58-6.851h-1.863l5.647,8.28v5.422h1.553Z"/>
</svg>
